<?xml version="1.0" encoding="utf-8"?>
<!-- Generator: Adobe Illustrator 19.2.1, SVG Export Plug-In . SVG Version: 6.00 Build 0)  -->
<svg version="1.1" id="Слой_1" xmlns="http://www.w3.org/2000/svg" xmlns:xlink="http://www.w3.org/1999/xlink" x="0px" y="0px"
	 viewBox="0 0 88.8 34.3" style="enable-background:new 0 0 88.8 34.3;" xml:space="preserve">
<style type="text/css">
	.st0{fill:#FFFFFF;}
</style>
<g>
	<path id="XMLID_7401_" class="st0" d="M81.2,18.1c-1.4,1.5-4.5,3-5.7,2.4c0.8-0.6,1.4-1.2,2-1.8c1-1.1,1.8-2.3,1.7-3.9
		c0-0.9-0.6-1.8-1.4-2.4c-0.7-0.5-1.5-0.8-2.2-0.7c-1.4,0.1-2.4,1-3,2.1s-1,2.5-0.9,4c0,0.7,0.5,2,0.5,2s-3.2,1.6-3.1-0.2
		c0-0.4,0.6-5.9,0.7-6.6c0.1-0.7,0.2-1.9,0.2-2.6c0.3-6.3-2.2-6.7-2.9-6.7c-0.6,0-3,0.4-4.6,4.4c-0.4,1.1-0.9,2.4-0.9,2.4
		c0.1-2-0.1-4.4-0.2-4.9c-0.4-1.8-1.9-1.9-2.2-1.9c-1.8,0-3.4,2.6-3.8,3.3c-0.4,0.6-1.6,3.3-1.9,4.7c-0.2,0.9-0.2,0.4-0.6,2.9
		c0.5-2.4,0.6-4.7,0.6-5.3c0-0.5,0.3-4-1.3-4.7C50.7,3.9,49.3,5,49,5.4c-1.1,1.3-1.9,3.1-1.8,3.6c0,0.4,1,0.8,1.3,0.6
		C49,9.3,49.6,8,50.3,7.3c0.2-0.2,0.5-0.4,0.8-0.2c0.2,0.1,0.2,0.8,0.2,0.8c0.1,2.5-0.4,8.2-0.6,9.9c-0.1,0.7-0.6,3.1-0.4,4
		c0,0.1,0.3,1,1.5,0.8c0.2,0,1.3-0.1,1.5-1.2c0.2-1.4,1.2-6.4,1.4-7.2c0.2-0.8,0.5-1.6,0.8-2.4c0.3-0.8,2-5.6,3.1-5.6
		C60,6,59.9,8.4,59.9,8.9c0,0.7-0.1,2.4-0.5,5.7c-0.4,3.2-0.5,3.9-0.6,6.5c0,0.2,0.1,1.5,1.3,1.5c0.3,0,1.3-0.3,1.4-1.2
		c0.5-5.8,1.6-10.6,2.1-11.9c0.3-0.6,1.6-4,3.2-3.3c0.7,0.3,0.7,2,0.7,2c0.2,1.4-1.1,10.1-1,11.2c0,0.1-0.1,2.2,2.1,3.1
		c0.4,0.1,2.9,0.4,5.1-0.9c0.8,0.8,1.9,1.1,2.9,1.1c2.5-0.1,5.3-1.9,6.8-3.4c0.5-0.5,0.1-0.9-0.4-1.3C82.1,17.8,81.6,17.6,81.2,18.1
		L81.2,18.1z M74.6,15.1c0.7-1.1,1.4-1,1.9-0.7c0.9,0.7,0.2,1.7-0.7,2.6c-0.4,0.5-0.8,0.8-1.6,1.4C73.6,16.7,74.6,15.1,74.6,15.1z"
		/>
	<path id="XMLID_7430_" class="st0" d="M81.1,12.9h0.8v2.4c0,0.2,0.2,0.4,0.5,0.4c0.2,0,0.5-0.2,0.5-0.4v-2.4h0.8
		c0.2,0,0.4-0.2,0.4-0.4s-0.2-0.4-0.4-0.4h-2.5c-0.2,0-0.4,0.2-0.4,0.4C80.7,12.8,80.9,12.9,81.1,12.9"/>
	<path id="XMLID_7429_" class="st0" d="M87.5,12.1c-0.2,0-0.4,0.1-0.5,0.3l-0.8,1.4l-0.8-1.4c-0.1-0.2-0.3-0.3-0.5-0.3
		c-0.4,0-0.6,0.3-0.6,0.6v2.7c0,0.2,0.2,0.4,0.5,0.4c0.3,0,0.4-0.2,0.4-0.4v-1.6l0.5,1c0.1,0.2,0.2,0.3,0.5,0.3
		c0.2,0,0.4-0.1,0.5-0.3l0.5-1v1.6c0,0.2,0.2,0.4,0.5,0.4c0.3,0,0.5-0.2,0.5-0.4v-2.7C88.1,12.3,87.9,12.1,87.5,12.1z"/>
	<path id="XMLID_7_" class="st0" d="M43.6,12.2c-2.3-0.7-3.6,0.5-3.9,0.7c0-0.1,0.1-0.7,0.1-0.7c0.1-0.6-0.3-0.9-0.9-0.9
		s-1.2,0.2-1.3,0.8c-0.3,1.6-0.4,4.9-0.4,6.2c-0.6,1-1.4,1.5-2.5,1.8c0.1-0.1,1.6-3.4,0.6-6c-0.3-0.8-1-1.9-2.2-2.1
		c-1.6-0.4-3.3,0.5-4.4,1.9c-2.3-2.7-6.4-2.3-7.4-1.7c-0.5,0.3-1.9,1.1-2.4,2.9c-0.2,0.5-1.2,3.6,0.7,5.7c-1.4,0.4-4-0.4-5.1-2
		c3.8-3.4,4.6-8.7,4.6-12.5c0-3-0.5-5.9-3.2-6c-3.2-0.1-5.2,5.9-5.1,11.3c0,3.6,0.9,6.7,0.9,6.7c-1.8,1.2-3.3,1.5-4.4,1.5
		c-1.5,0-2.6-0.6-3.6-1.3c-0.5-0.4-1.7-1.6-2-1.9c-0.5-0.5-0.8-0.2-1.2,0.2c-0.5,0.5-0.3,1.1,0.6,2.1c1,1.2,3.4,3.2,6.1,3.3
		c1.6,0,3.4-0.3,5.4-1.6c2.2,2.5,6.4,3,9.7,2c3.7-1,4.9-5.2,3.7-8.2c0.2,0.1,1.6,0.7,1.8,3c0.1,0.8-0.1,1.2,0.2,2.1
		c0.1,0.5,0.8,3.2,3.8,3.3c1.2,0,3-0.4,4.8-1.4c-1.5,1.5-1.9,2.4-2.1,2.7c-1,1.8-1.7,3.8-1.7,5.7c0,1,0.1,1.9,0.6,2.9
		c0.5,0.8,1.5,1.7,3.1,1.7c0.8,0,2.7-0.3,3.2-3.1c0.2-1,0.3-2,0.3-3.3c0-1.8-0.1-4.6-0.2-6c1.5-0.6,5.8-2,6.1-5.7
		C45.8,13.1,44.1,12.4,43.6,12.2z M12.7,12c0-3.9,1.4-8.9,2.8-8.9l0,0c0.7,0,0.9,1.9,0.9,3.7c0,3.4-1,7.8-3.2,10.2
		C12.8,15.3,12.7,13.6,12.7,12z M23.8,17.5c-0.1,0.5-0.7,2.6-1.8,2.6c-2.1,0-1.4-3.4-1.3-3.9c0.1-0.5,0.9-2.7,2-2.6
		C24.4,13.8,23.9,17,23.8,17.5 M33.2,17.8c-0.1,0.5-0.8,2.7-1.8,2.6c-2.2-0.2-1.4-3.4-1.3-3.9s0.8-2.6,2-2.6
		C33.8,14,33.3,17.3,33.2,17.8 M35.9,31.9c-1.1-0.2-1.1-1.4-1.1-2.1c0-1.4,0.6-3.1,1.4-4.6c0.3-0.6,0.7-1.1,1.1-1.6
		c0.1,1.7,0.1,3,0.1,4.3C37.4,29.4,37.4,32.3,35.9,31.9z M42.6,17.7c-1.1,1.2-2.5,1.8-3.1,2c0-0.4,0-2.9,1.3-4.6
		c0.3-0.4,1.4-1.2,2.3-0.5C44.2,15.3,43.2,17,42.6,17.7z"/>
</g>
</svg>
